<svg xmlns="http://www.w3.org/2000/svg" viewBox="0 0 32 32">
  <defs>
    <linearGradient id="bg" x1="0%" y1="0%" x2="100%" y2="100%">
      <stop offset="0%" style="stop-color:#1a1a2e"/>
      <stop offset="100%" style="stop-color:#16213e"/>
    </linearGradient>
  </defs>
  <!-- Background -->
  <rect width="32" height="32" rx="6" fill="url(#bg)"/>
  <!-- Server rack -->
  <rect x="6" y="5" width="20" height="6" rx="1" fill="#2d3436" stroke="#4a5568" stroke-width="0.5"/>
  <rect x="6" y="13" width="20" height="6" rx="1" fill="#2d3436" stroke="#4a5568" stroke-width="0.5"/>
  <rect x="6" y="21" width="20" height="6" rx="1" fill="#2d3436" stroke="#4a5568" stroke-width="0.5"/>
  <!-- Status LEDs -->
  <circle cx="9" cy="8" r="1.5" fill="#00d26a"/>
  <circle cx="9" cy="16" r="1.5" fill="#00d26a"/>
  <circle cx="9" cy="24" r="1.5" fill="#ffc107"/>
  <!-- Drive bays -->
  <rect x="14" y="6.5" width="3" height="3" rx="0.5" fill="#4a5568"/>
  <rect x="18" y="6.5" width="3" height="3" rx="0.5" fill="#4a5568"/>
  <rect x="22" y="6.5" width="2" height="3" rx="0.5" fill="#4a5568"/>
  <rect x="14" y="14.5" width="3" height="3" rx="0.5" fill="#4a5568"/>
  <rect x="18" y="14.5" width="3" height="3" rx="0.5" fill="#4a5568"/>
  <rect x="22" y="14.5" width="2" height="3" rx="0.5" fill="#4a5568"/>
  <rect x="14" y="22.5" width="3" height="3" rx="0.5" fill="#4a5568"/>
  <rect x="18" y="22.5" width="3" height="3" rx="0.5" fill="#4a5568"/>
  <rect x="22" y="22.5" width="2" height="3" rx="0.5" fill="#4a5568"/>
</svg>

